<svg width="500" height="500" xmlns="http://www.w3.org/2000/svg">
  <defs>
    <linearGradient id="journalGradient" x1="0%" y1="0%" x2="100%" y2="100%">
      <stop offset="0%" style="stop-color:#8B4513;stop-opacity:1" />
      <stop offset="100%" style="stop-color:#5C2E0E;stop-opacity:1" />
    </linearGradient>
  </defs>
  <rect width="500" height="500" fill="#f5f5f5"/>
  <path d="M 100 80 L 250 70 L 400 80 L 400 380 Q 400 400 380 400 L 120 400 Q 100 400 100 380 Z" fill="url(#journalGradient)"/>
  <line x1="250" y1="70" x2="250" y2="400" stroke="#D4A574" stroke-width="3" opacity="0.7"/>
  <rect x="130" y="120" width="110" height="8" fill="#D4A574" opacity="0.5"/>
  <rect x="130" y="145" width="110" height="8" fill="#D4A574" opacity="0.5"/>
  <rect x="130" y="170" width="110" height="8" fill="#D4A574" opacity="0.5"/>
  <rect x="130" y="195" width="110" height="8" fill="#D4A574" opacity="0.5"/>
  <rect x="260" y="120" width="110" height="8" fill="#D4A574" opacity="0.5"/>
  <rect x="260" y="145" width="110" height="8" fill="#D4A574" opacity="0.5"/>
  <rect x="260" y="170" width="110" height="8" fill="#D4A574" opacity="0.5"/>
  <rect x="260" y="195" width="110" height="8" fill="#D4A574" opacity="0.5"/>
  <text x="250" y="450" font-size="24" font-weight="bold" text-anchor="middle" fill="#333">Leather Journal</text>
</svg>